<svg width="160" height="160" viewBox="0 0 160 160" fill="none" xmlns="http://www.w3.org/2000/svg">
<path d="M133.186 87.8493C129.772 83.1402 120.928 85.4269 109.936 93.5273C98.5028 101.957 91.7311 111.123 87.5875 121.685C86.3981 124.708 84.3071 127.266 81.5447 128.913L79.07 130.386L76.5954 128.913C73.833 127.266 71.742 124.708 70.5526 121.685C66.409 111.143 59.6373 101.976 48.204 93.5273C37.2311 85.4269 28.3684 83.1402 24.9538 87.8493C20.5416 93.9536 19.5633 108.1 29.4427 115.387C36.0609 120.27 47.0914 124.669 63.3205 130.715C65.4307 131.51 67.349 132.789 68.8837 134.475L78.6864 145.211H79.4154L89.2181 134.475C90.7527 132.808 92.6711 131.51 94.7812 130.715C111.01 124.669 122.041 120.27 128.659 115.387C138.538 108.1 137.56 93.9342 133.148 87.8493H133.186Z" fill="white"/>
<path d="M123.909 57.5516C121.236 53.6274 114.315 55.533 105.713 62.2833C96.7652 69.3081 91.4656 76.9466 88.2227 85.7478C87.2919 88.267 85.6555 90.3987 83.4936 91.7714L81.5569 92.9987L79.6203 91.7714C77.4584 90.3987 75.8219 88.267 74.8911 85.7478C71.6483 76.9627 66.3487 69.3243 57.4009 62.2833C48.8134 55.533 41.8774 53.6274 39.2051 57.5516C35.7521 62.6386 34.9864 74.4273 42.7181 80.4994C47.8976 84.5689 56.5302 88.2347 69.2312 93.2732C70.8827 93.9353 72.3839 95.0012 73.585 96.4061L81.2567 105.353H81.8272L89.4989 96.4061C90.6999 95.0173 92.2012 93.9353 93.8526 93.2732C106.554 88.2347 115.186 84.5689 120.366 80.4994C128.097 74.4273 127.332 62.6224 123.879 57.5516H123.909Z" fill="white"/>
<path d="M114.494 32.0354C112.415 29.2884 107.032 30.6223 100.342 35.3475C93.3822 40.2649 89.2603 45.6118 86.7381 51.7727C86.0141 53.5361 84.7413 55.0283 83.0599 55.9892L81.5535 56.8483L80.0472 55.9892C78.3658 55.0283 77.093 53.5361 76.369 51.7727C73.8468 45.6231 69.7249 40.2762 62.7655 35.3475C56.0864 30.6223 50.6917 29.2884 48.6132 32.0354C45.9275 35.5962 45.332 43.8484 51.3456 48.0988C55.3741 50.9475 62.0883 53.5135 71.9669 57.0405C73.2513 57.504 74.419 58.25 75.3531 59.2335L81.32 65.4961H81.7637L87.7306 59.2335C88.6647 58.2613 89.8324 57.504 91.1169 57.0405C100.995 53.5135 107.71 50.9475 111.738 48.0988C117.752 43.8484 117.156 35.5849 114.471 32.0354H114.494Z" fill="white"/>
<path d="M81.5419 30.621C87.045 30.621 91.5062 26.1598 91.5062 20.6567C91.5062 15.1535 87.045 10.6924 81.5419 10.6924C76.0388 10.6924 71.5776 15.1535 71.5776 20.6567C71.5776 26.1598 76.0388 30.621 81.5419 30.621Z" fill="white"/>
</svg>
