<svg width="170" height="170" viewBox="0 0 170 170" fill="none" xmlns="http://www.w3.org/2000/svg">
<path d="M87.4871 19.5291C82.0668 23.4726 84.6989 33.686 94.0227 46.3806C103.726 59.5848 114.276 67.4054 126.433 72.1908C129.913 73.5644 132.857 75.9793 134.753 79.1695L136.448 82.0275L134.753 84.8855C132.857 88.0757 129.913 90.4906 126.433 91.8642C114.299 96.6496 103.748 104.47 94.0227 117.674C84.6989 130.347 82.0668 140.582 87.4871 144.526C94.5134 149.622 110.797 150.751 119.184 139.342C124.805 131.698 129.868 118.959 136.828 100.217C137.742 97.7795 139.214 95.564 141.155 93.7917L153.512 82.4706L153.512 81.6287L141.155 70.3077C139.237 68.5353 137.742 66.3198 136.828 63.8828C129.868 45.1399 124.805 32.401 119.184 24.7576C110.797 13.3479 94.4911 14.4778 87.4871 19.5734L87.4871 19.5291Z" fill="white"/>
<path d="M50.2885 89.99C54.6738 89.99 58.2288 86.435 58.2288 82.0497C58.2288 77.6644 54.6738 74.1094 50.2885 74.1094C45.9032 74.1094 42.3482 77.6644 42.3482 82.0497C42.3482 86.435 45.9032 89.99 50.2885 89.99Z" fill="white"/>
<path d="M87.3432 95.2831C94.652 95.2831 100.577 89.3581 100.577 82.0492C100.577 74.7404 94.652 68.8154 87.3432 68.8154C80.0344 68.8154 74.1094 74.7404 74.1094 82.0492C74.1094 89.3581 80.0344 95.2831 87.3432 95.2831Z" fill="white"/>
</svg>
