<svg width="160" height="160" viewBox="0 0 160 160" fill="none" xmlns="http://www.w3.org/2000/svg">
<path d="M22.5551 18.3803C17.4536 22.0919 19.9309 31.7044 28.7062 43.6523C37.8385 56.0798 47.7685 63.4404 59.2101 67.9443C62.4851 69.2371 65.2563 71.5099 67.0407 74.5125L68.6362 77.2024L67.0407 79.8922C65.2563 82.8948 62.4851 85.1676 59.2101 86.4604C47.7895 90.9644 37.8595 98.3249 28.7062 110.752C19.9309 122.679 17.4536 132.313 22.5551 136.024C29.1681 140.82 44.4935 141.884 52.3871 131.145C57.6775 123.951 62.4431 111.962 68.9931 94.3214C69.8539 92.0278 71.2395 89.9426 73.0659 88.2745L84.6964 77.6194L84.6964 76.827L73.0659 66.1719C71.2605 64.5038 69.8539 62.4187 68.9931 60.125C62.4431 42.4846 57.6775 30.495 52.3871 23.3013C44.4935 12.5628 29.1471 13.6262 22.5551 18.422L22.5551 18.3803Z" fill="white"/>
<path d="M136.873 136.066C141.975 132.354 139.498 122.742 130.722 110.794C121.59 98.3665 111.66 91.0059 100.218 86.502C96.9435 85.2092 94.1723 82.9364 92.3878 79.9338L90.7923 77.2439L92.3878 74.5541C94.1723 71.5515 96.9435 69.2786 100.218 67.9859C111.639 63.4819 121.569 56.1214 130.722 43.6939C139.498 31.7668 141.975 22.1334 136.874 18.4219C130.26 13.626 114.935 12.5626 107.041 23.3011C101.751 30.4949 96.9855 42.4845 90.4354 60.1249C89.5747 62.4185 88.1891 64.5037 86.3627 66.1718L74.7321 76.8269L74.7321 77.6193L86.3627 88.2744C88.1681 89.9425 89.5747 92.0276 90.4354 94.3213C96.9855 111.962 101.751 123.951 107.041 131.145C114.935 141.884 130.281 140.82 136.873 136.024L136.873 136.066Z" fill="white"/>
<path d="M79.7143 124.554C74.2112 124.554 69.75 129.015 69.75 134.518C69.75 140.021 74.2112 144.482 79.7143 144.482C85.2174 144.482 89.6786 140.021 89.6786 134.518C89.6786 129.015 85.2174 124.554 79.7143 124.554Z" fill="white"/>
<path d="M79.7143 4.98256C74.2112 4.98256 69.75 9.44372 69.75 14.9468C69.75 20.45 74.2112 24.9111 79.7143 24.9111C85.2174 24.9111 89.6786 20.45 89.6786 14.9468C89.6786 9.44373 85.2174 4.98256 79.7143 4.98256Z" fill="white"/>
<path d="M29.8929 74.732C29.8929 69.2289 25.4317 64.7677 19.9286 64.7677C14.4255 64.7677 9.96429 69.2289 9.96429 74.732C9.96429 80.2351 14.4254 84.6963 19.9286 84.6963C25.4317 84.6963 29.8929 80.2351 29.8929 74.732Z" fill="white"/>
<path d="M149.464 74.732C149.464 69.2289 145.003 64.7677 139.5 64.7677C133.997 64.7677 129.536 69.2289 129.536 74.732C129.536 80.2351 133.997 84.6963 139.5 84.6963C145.003 84.6963 149.464 80.2351 149.464 74.732Z" fill="white"/>
</svg>
