<svg width="160" height="160" viewBox="0 0 160 160" fill="none" xmlns="http://www.w3.org/2000/svg">
<path d="M15.6604 37.4855C11.9959 40.1698 13.7754 47.1219 20.079 55.763C26.639 64.751 33.7721 70.0744 41.991 73.3318C44.3435 74.2668 46.3342 75.9105 47.616 78.0821L48.7621 80.0275L47.616 81.9729C46.3342 84.1445 44.3435 85.7883 41.991 86.7232C33.7872 89.9806 26.6541 95.304 20.079 104.292C13.7754 112.918 11.9959 119.885 15.6604 122.57C20.4108 126.038 31.4196 126.807 37.0898 119.041C40.8901 113.838 44.3134 105.167 49.0185 92.4086C49.6368 90.7497 50.6321 89.2417 51.9441 88.0352L60.2987 80.3291V79.7561L51.9441 72.0499C50.6472 70.8435 49.6368 69.3354 49.0185 67.6766C44.3134 54.9185 40.8901 46.2472 37.0898 41.0445C31.4196 33.278 20.3957 34.0471 15.6604 37.5156V37.4855Z" fill="white"/>
<path d="M145.911 37.4855C149.575 40.1698 147.796 47.1219 141.492 55.763C134.932 64.751 127.799 70.0744 119.58 73.3318C117.228 74.2668 115.237 75.9105 113.955 78.0821L112.809 80.0275L113.955 81.9729C115.237 84.1445 117.228 85.7883 119.58 86.7232C127.784 89.9806 134.917 95.304 141.492 104.292C147.796 112.918 149.575 119.885 145.911 122.57C141.16 126.038 130.152 126.807 124.481 119.041C120.681 113.838 117.258 105.167 112.553 92.4086C111.934 90.7497 110.939 89.2417 109.627 88.0352L101.272 80.3291V79.8315V79.7561L109.627 72.0499C110.924 70.8435 111.934 69.3354 112.553 67.6766C117.258 54.9185 120.681 46.2472 124.481 41.0445C130.152 33.278 141.175 34.0471 145.911 37.5156V37.4855Z" fill="white"/>
<path d="M123.305 14.8799C120.621 11.2153 113.669 12.9948 105.027 19.2984C96.0395 25.8585 90.7161 32.9915 87.4587 41.2104C86.5237 43.563 84.88 45.5536 82.7084 46.8354L80.763 47.9815L78.8176 46.8354C76.646 45.5536 75.0022 43.563 74.0672 41.2104C70.8099 33.0066 65.4865 25.8735 56.4985 19.2984C47.8725 12.9948 40.9053 11.2153 38.2209 14.8799C34.7524 19.6302 33.9833 30.639 41.7498 36.3092C46.9525 40.1095 55.6238 43.5328 68.3819 48.2379C70.0408 48.8562 71.5488 49.8515 72.7553 51.1635L80.4614 59.5181H81.0344L88.7406 51.1635C89.947 49.8666 91.4551 48.8562 93.1139 48.2379C105.872 43.5328 114.543 40.1095 119.746 36.3092C127.512 30.639 126.743 19.6151 123.275 14.8799H123.305Z" fill="white"/>
<path d="M123.305 145.13C120.621 148.795 113.669 147.015 105.027 140.712C96.0395 134.152 90.7161 127.019 87.4587 118.8C86.5237 116.447 84.88 114.457 82.7084 113.175L80.763 112.029L78.8176 113.175C76.646 114.457 75.0022 116.447 74.0672 118.8C70.8099 127.004 65.4865 134.137 56.4985 140.712C47.8725 147.015 40.9053 148.795 38.2209 145.13C34.7524 140.38 33.9833 129.371 41.7498 123.701C46.9525 119.901 55.6238 116.478 68.3819 111.772C70.0408 111.154 71.5488 110.159 72.7553 108.847L80.4614 100.492H81.0344L88.7406 108.847C89.947 110.144 91.4551 111.154 93.1139 111.772C105.872 116.478 114.543 119.901 119.746 123.701C127.512 129.371 126.743 140.395 123.275 145.13H123.305Z" fill="white"/>
<path d="M80.6422 89.0614C85.6395 89.0614 89.6905 85.0104 89.6905 80.0131C89.6905 75.0159 85.6395 70.9648 80.6422 70.9648C75.645 70.9648 71.5939 75.0159 71.5939 80.0131C71.5939 85.0104 75.645 89.0614 80.6422 89.0614Z" fill="white"/>
<path d="M80.6422 25.0444C84.8066 25.0444 88.1825 21.6685 88.1825 17.5041C88.1825 13.3397 84.8066 9.96387 80.6422 9.96387C76.4779 9.96387 73.102 13.3397 73.102 17.5041C73.102 21.6685 76.4779 25.0444 80.6422 25.0444Z" fill="white"/>
<path d="M80.6422 150.062C84.8066 150.062 88.1825 146.686 88.1825 142.522C88.1825 138.357 84.8066 134.981 80.6422 134.981C76.4779 134.981 73.102 138.357 73.102 142.522C73.102 146.686 76.4779 150.062 80.6422 150.062Z" fill="white"/>
</svg>
