<svg width="160" height="160" viewBox="0 0 160 160" fill="none" xmlns="http://www.w3.org/2000/svg">
<path d="M133.639 83.7527C130.287 79.1762 121.604 81.3985 110.813 89.271C99.5878 97.4636 92.9395 106.372 88.8715 116.636C87.7038 119.574 85.6509 122.06 82.9389 123.661L80.5093 125.093L78.0798 123.661C75.3678 122.06 73.3149 119.574 72.1472 116.636C68.0791 106.391 61.4309 97.4824 50.2061 89.271C39.4332 81.3985 30.7321 79.1762 27.3797 83.7527C23.048 89.6853 22.0875 103.434 31.7868 110.515C38.2844 115.261 49.1137 119.537 65.047 125.413C67.1186 126.185 69.002 127.428 70.5087 129.066L80.1327 139.5H80.8483L90.4723 129.066C91.979 127.447 93.8624 126.185 95.9341 125.413C111.867 119.537 122.697 115.261 129.194 110.515C138.894 103.434 137.933 89.6665 133.601 83.7527H133.639Z" fill="white"/>
<path d="M27.3401 74.9767C30.6925 79.5533 39.3748 77.3309 50.1665 69.4585C61.3913 61.2659 68.0396 52.3576 72.1076 42.0933C73.2753 39.1552 75.3282 36.6692 78.0402 35.0683L80.4697 33.637L82.8993 35.0683C85.6113 36.6692 87.6642 39.1552 88.8319 42.0933C92.8999 52.3388 99.5482 61.2471 110.773 69.4585C121.546 77.331 130.247 79.5533 133.599 74.9768C137.931 69.0442 138.892 55.2956 129.192 48.2142C122.695 43.4681 111.865 39.1929 95.9321 33.3168C93.8604 32.5446 91.9771 31.3016 90.4704 29.6631L80.8464 19.2293L80.1307 19.2293L70.5067 29.6631C69.0001 31.2828 67.1167 32.5446 65.045 33.3168C49.1118 39.1929 38.2825 43.4681 31.7849 48.2142C22.0856 55.2956 23.0461 69.063 27.3778 74.9767L27.3401 74.9767Z" fill="white"/>
<path d="M147.515 88.9137C152.716 88.9137 156.932 84.6976 156.932 79.4969C156.932 74.2961 152.716 70.0801 147.515 70.0801C142.314 70.0801 138.098 74.2961 138.098 79.4969C138.098 84.6976 142.314 88.9137 147.515 88.9137Z" fill="white"/>
<path d="M11.9133 88.9137C17.114 88.9137 21.3301 84.6976 21.3301 79.4969C21.3301 74.2961 17.114 70.0801 11.9133 70.0801C6.71251 70.0801 2.49646 74.2961 2.49646 79.4969C2.49646 84.6976 6.71251 88.9137 11.9133 88.9137Z" fill="white"/>
<path d="M80.3583 90.7976C86.5992 90.7976 91.6585 85.7383 91.6585 79.4974C91.6585 73.2565 86.5992 68.1973 80.3583 68.1973C74.1174 68.1973 69.0582 73.2565 69.0582 79.4974C69.0582 85.7383 74.1174 90.7976 80.3583 90.7976Z" fill="white"/>
</svg>
