<svg width="527" height="156" viewBox="0 0 527 156" fill="none" xmlns="http://www.w3.org/2000/svg">
<g clip-path="url(#clip0_3_36)">
<path d="M0 119.59C5.22 118.02 6.96 114.02 6.96 99.75V22.11C6.96 7.83 5.22 3.83 0 2.26V0H28.2V2.26C22.8 3.83 21.24 7.83 21.24 22.1V66.31L66.85 19.66C77.82 8.34 79.38 2.6 72.59 1.56V0H96.79V2.26C91.22 3.83 83.91 5.57 73.99 15.84L36.91 53.79L40.91 53.62C66.85 51.88 70.85 61.28 82.69 91.05C91.57 113.33 95.4 119.42 100.97 119.42C102.01 119.42 102.89 119.42 103.93 119.25V121.51C100.97 122.38 97.14 122.73 93.49 122.73C80.78 122.73 77.65 115.24 69.29 94.88C57.8 66.68 55.19 56.06 37.61 56.58H34.13L21.25 69.81V99.75C21.25 114.02 22.82 118.03 28.21 119.59V121.85H0V119.59Z" fill="#332010"/>
<path d="M199.94 119.59C205.34 118.02 206.9 114.02 206.9 99.75V59.71C206.9 47.53 204.64 45.78 199.94 43.69V41.78L218.91 33.42L220.48 34.64V56.4C223.27 49.61 227.97 43.69 233.19 39.86C238.59 35.86 244.68 33.59 253.03 33.59C259.99 33.59 264.34 35.33 264.34 38.29C264.34 42.12 260.51 48.21 254.24 48.21C249.54 48.21 242.75 46.29 232.48 43.34C227.43 47 221.16 56.74 220.64 65.1H220.47V99.74C220.47 114.01 222.21 118.02 227.43 119.58V121.84H199.93V119.58L199.94 119.59Z" fill="#332010"/>
<path d="M260.66 80.94C260.66 52.57 282.07 33.59 306.44 33.59C328.37 33.59 341.08 47.86 341.6 64.4H273.54C273.19 67.01 273.02 69.62 273.02 72.41C273.02 96.26 287.82 112.62 310.45 112.62C323.85 112.62 333.43 106.53 341.44 97.48L343.01 99.05C334.13 111.23 320.55 123.59 301.93 123.59C283.31 123.59 260.67 109.66 260.67 80.94H260.66ZM327.67 62.14C325.93 50.48 316.53 36.72 300.69 36.72C285.89 36.55 276.84 47.51 274.06 62.14H327.67Z" fill="#332010"/>
<path d="M349.74 119.59C355.14 118.02 356.7 114.02 356.7 99.75V59.71C356.7 47.53 354.61 45.78 349.74 43.69V41.78L368.89 33.42L370.28 34.64V49.61C380.38 41.43 393.78 33.6 407.18 33.6C424.24 33.6 434.68 43.52 434.68 63.89V99.75C434.68 114.02 436.42 118.03 441.64 119.59V121.85H414.14V119.59C419.54 118.02 421.1 114.02 421.1 99.75V67.37C421.1 49.27 413.44 39.34 398.12 39.34C388.55 39.34 379.15 45.08 370.27 52.4V99.75C370.27 114.02 372.01 118.03 377.23 119.59V121.85H349.73V119.59H349.74Z" fill="#332010"/>
<path d="M252 1.30999C250.61 -0.590007 247 0.329993 242.52 3.59999C237.86 6.99999 235.1 10.7 233.41 14.96C232.93 16.18 232.08 17.21 230.95 17.88L229.94 18.48L228.93 17.88C227.8 17.21 226.95 16.18 226.47 14.96C224.78 10.7 222.02 6.99999 217.36 3.59999C212.89 0.329993 209.27 -0.590007 207.88 1.30999C206.08 3.76999 205.68 9.47999 209.71 12.43C212.41 14.4 216.9 16.18 223.52 18.61C224.38 18.93 225.16 19.45 225.79 20.12L229.79 24.45H230.08L234.08 20.12C234.7 19.44 235.49 18.92 236.35 18.61C242.97 16.17 247.47 14.4 250.16 12.43C254.19 9.48999 253.79 3.76999 251.99 1.30999H252Z" fill="#332010"/>
<path d="M506.99 34.81V37.07C513.08 38.29 513.43 43.86 508.56 55.17L487.15 104.96L465.74 55.17C460.17 42.11 458.78 38.63 464 37.07V34.81H437.71V37.07C441.37 38.64 445.72 42.12 451.11 55.17L479.66 122.19C479.59 122.34 479.51 122.5 479.44 122.65L477.76 125.98C477.6 126.28 477.45 126.58 477.29 126.88C471.14 137.98 464.62 140.74 446.15 140.94C446.15 140.94 443.57 141 441.9 141C435.46 141 431.11 147.27 431.11 150.58C431.11 154.87 440.07 155.37 440.53 155.41C460 157.08 469.68 150.08 478.44 129.58L480.34 125.71C481.63 123.19 482.92 120.47 484.2 117.51L511.18 55.19C516.92 42.13 521.45 38.65 526.32 37.09V34.83H507L506.99 34.81Z" fill="#332010"/>
</g>
<defs>
<clipPath id="clip0_3_36">
<rect width="526.31" height="155.64" fill="white"/>
</clipPath>
</defs>
</svg>
