<svg width="91" height="96" viewBox="0 0 91 96" fill="none" xmlns="http://www.w3.org/2000/svg">
<g transform="translate(-102 -30)">
<path d="M104.03 49.86C101.6 51.64 102.78 56.25 106.96 61.98C111.31 67.94 116.04 71.47 121.49 73.63C123.05 74.25 124.37 75.34 125.22 76.78L125.98 78.07L125.22 79.36C124.37 80.8 123.05 81.89 121.49 82.51C116.05 84.67 111.32 88.2 106.96 94.16C102.78 99.88 101.6 104.5 104.03 106.28C107.18 108.58 114.48 109.09 118.24 103.94C120.76 100.49 123.03 94.74 126.15 86.28C126.56 85.18 127.22 84.18 128.09 83.38L133.63 78.27V77.89L128.09 72.78C127.23 71.98 126.56 70.98 126.15 69.88C123.03 61.42 120.76 55.67 118.24 52.22C114.48 47.07 107.17 47.58 104.03 49.88V49.86Z" fill="#332010"/>
<path d="M190.4 49.86C192.83 51.64 191.65 56.25 187.47 61.98C183.12 67.94 178.39 71.47 172.94 73.63C171.38 74.25 170.06 75.34 169.21 76.78L168.45 78.07L169.21 79.36C170.06 80.8 171.38 81.89 172.94 82.51C178.38 84.67 183.11 88.2 187.47 94.16C191.65 99.88 192.83 104.5 190.4 106.28C187.25 108.58 179.95 109.09 176.19 103.94C173.67 100.49 171.4 94.74 168.28 86.28C167.87 85.18 167.21 84.18 166.34 83.38L160.8 78.27V77.94V77.89L166.34 72.78C167.2 71.98 167.87 70.98 168.28 69.88C171.4 61.42 173.67 55.67 176.19 52.22C179.95 47.07 187.26 47.58 190.4 49.88V49.86Z" fill="#332010"/>
<path d="M175.41 34.87C173.63 32.44 169.02 33.62 163.29 37.8C157.33 42.15 153.8 46.88 151.64 52.33C151.02 53.89 149.93 55.21 148.49 56.06L147.2 56.82L145.91 56.06C144.47 55.21 143.38 53.89 142.76 52.33C140.6 46.89 137.07 42.16 131.11 37.8C125.39 33.62 120.77 32.44 118.99 34.87C116.69 38.02 116.18 45.32 121.33 49.08C124.78 51.6 130.53 53.87 138.99 56.99C140.09 57.4 141.09 58.06 141.89 58.93L147 64.47H147.38L152.49 58.93C153.29 58.07 154.29 57.4 155.39 56.99C163.85 53.87 169.6 51.6 173.05 49.08C178.2 45.32 177.69 38.01 175.39 34.87H175.41Z" fill="#332010"/>
<path d="M175.41 121.24C173.63 123.67 169.02 122.49 163.29 118.31C157.33 113.96 153.8 109.23 151.64 103.78C151.02 102.22 149.93 100.9 148.49 100.05L147.2 99.29L145.91 100.05C144.47 100.9 143.38 102.22 142.76 103.78C140.6 109.22 137.07 113.95 131.11 118.31C125.39 122.49 120.77 123.67 118.99 121.24C116.69 118.09 116.18 110.79 121.33 107.03C124.78 104.51 130.53 102.24 138.99 99.12C140.09 98.71 141.09 98.05 141.89 97.18L147 91.64H147.38L152.49 97.18C153.29 98.04 154.29 98.71 155.39 99.12C163.85 102.24 169.6 104.51 173.05 107.03C178.2 110.79 177.69 118.1 175.39 121.24H175.41Z" fill="#332010"/>
<path d="M147.12 84.06C150.434 84.06 153.12 81.3737 153.12 78.06C153.12 74.7463 150.434 72.06 147.12 72.06C143.806 72.06 141.12 74.7463 141.12 78.06C141.12 81.3737 143.806 84.06 147.12 84.06Z" fill="#332010"/>
<path d="M147.12 41.61C149.881 41.61 152.12 39.3714 152.12 36.61C152.12 33.8486 149.881 31.61 147.12 31.61C144.359 31.61 142.12 33.8486 142.12 36.61C142.12 39.3714 144.359 41.61 147.12 41.61Z" fill="#332010"/>
<path d="M147.12 124.51C149.881 124.51 152.12 122.271 152.12 119.51C152.12 116.749 149.881 114.51 147.12 114.51C144.359 114.51 142.12 116.749 142.12 119.51C142.12 122.271 144.359 124.51 147.12 124.51Z" fill="#332010"/>
</g>
</svg>
