<svg width="527" height="156" viewBox="0 0 527 156" fill="none" xmlns="http://www.w3.org/2000/svg">
<g clip-path="url(#clip0_3_36)">
<path d="M104.03 49.86C101.6 51.64 102.78 56.25 106.96 61.98C111.31 67.94 116.04 71.47 121.49 73.63C123.05 74.25 124.37 75.34 125.22 76.78L125.98 78.07L125.22 79.36C124.37 80.8 123.05 81.89 121.49 82.51C116.05 84.67 111.32 88.2 106.96 94.16C102.78 99.88 101.6 104.5 104.03 106.28C107.18 108.58 114.48 109.09 118.24 103.94C120.76 100.49 123.03 94.74 126.15 86.28C126.56 85.18 127.22 84.18 128.09 83.38L133.63 78.27V77.89L128.09 72.78C127.23 71.98 126.56 70.98 126.15 69.88C123.03 61.42 120.76 55.67 118.24 52.22C114.48 47.07 107.17 47.58 104.03 49.88V49.86Z" fill="#332010"/>
<path d="M190.4 49.86C192.83 51.64 191.65 56.25 187.47 61.98C183.12 67.94 178.39 71.47 172.94 73.63C171.38 74.25 170.06 75.34 169.21 76.78L168.45 78.07L169.21 79.36C170.06 80.8 171.38 81.89 172.94 82.51C178.38 84.67 183.11 88.2 187.47 94.16C191.65 99.88 192.83 104.5 190.4 106.28C187.25 108.58 179.95 109.09 176.19 103.94C173.67 100.49 171.4 94.74 168.28 86.28C167.87 85.18 167.21 84.18 166.34 83.38L160.8 78.27V77.94V77.89L166.34 72.78C167.2 71.98 167.87 70.98 168.28 69.88C171.4 61.42 173.67 55.67 176.19 52.22C179.95 47.07 187.26 47.58 190.4 49.88V49.86Z" fill="#332010"/>
<path d="M175.41 34.87C173.63 32.44 169.02 33.62 163.29 37.8C157.33 42.15 153.8 46.88 151.64 52.33C151.02 53.89 149.93 55.21 148.49 56.06L147.2 56.82L145.91 56.06C144.47 55.21 143.38 53.89 142.76 52.33C140.6 46.89 137.07 42.16 131.11 37.8C125.39 33.62 120.77 32.44 118.99 34.87C116.69 38.02 116.18 45.32 121.33 49.08C124.78 51.6 130.53 53.87 138.99 56.99C140.09 57.4 141.09 58.06 141.89 58.93L147 64.47H147.38L152.49 58.93C153.29 58.07 154.29 57.4 155.39 56.99C163.85 53.87 169.6 51.6 173.05 49.08C178.2 45.32 177.69 38.01 175.39 34.87H175.41Z" fill="#332010"/>
<path d="M175.41 121.24C173.63 123.67 169.02 122.49 163.29 118.31C157.33 113.96 153.8 109.23 151.64 103.78C151.02 102.22 149.93 100.9 148.49 100.05L147.2 99.29L145.91 100.05C144.47 100.9 143.38 102.22 142.76 103.78C140.6 109.22 137.07 113.95 131.11 118.31C125.39 122.49 120.77 123.67 118.99 121.24C116.69 118.09 116.18 110.79 121.33 107.03C124.78 104.51 130.53 102.24 138.99 99.12C140.09 98.71 141.09 98.05 141.89 97.18L147 91.64H147.38L152.49 97.18C153.29 98.04 154.29 98.71 155.39 99.12C163.85 102.24 169.6 104.51 173.05 107.03C178.2 110.79 177.69 118.1 175.39 121.24H175.41Z" fill="#332010"/>
<path d="M147.12 84.06C150.434 84.06 153.12 81.3737 153.12 78.06C153.12 74.7463 150.434 72.06 147.12 72.06C143.806 72.06 141.12 74.7463 141.12 78.06C141.12 81.3737 143.806 84.06 147.12 84.06Z" fill="#332010"/>
<path d="M147.12 41.61C149.881 41.61 152.12 39.3714 152.12 36.61C152.12 33.8486 149.881 31.61 147.12 31.61C144.359 31.61 142.12 33.8486 142.12 36.61C142.12 39.3714 144.359 41.61 147.12 41.61Z" fill="#332010"/>
<path d="M147.12 124.51C149.881 124.51 152.12 122.271 152.12 119.51C152.12 116.749 149.881 114.51 147.12 114.51C144.359 114.51 142.12 116.749 142.12 119.51C142.12 122.271 144.359 124.51 147.12 124.51Z" fill="#332010"/>
<path d="M0 119.59C5.22 118.02 6.96 114.02 6.96 99.75V22.11C6.96 7.83 5.22 3.83 0 2.26V0H28.2V2.26C22.8 3.83 21.24 7.83 21.24 22.1V66.31L66.85 19.66C77.82 8.34 79.38 2.6 72.59 1.56V0H96.79V2.26C91.22 3.83 83.91 5.57 73.99 15.84L36.91 53.79L40.91 53.62C66.85 51.88 70.85 61.28 82.69 91.05C91.57 113.33 95.4 119.42 100.97 119.42C102.01 119.42 102.89 119.42 103.93 119.25V121.51C100.97 122.38 97.14 122.73 93.49 122.73C80.78 122.73 77.65 115.24 69.29 94.88C57.8 66.68 55.19 56.06 37.61 56.58H34.13L21.25 69.81V99.75C21.25 114.02 22.82 118.03 28.21 119.59V121.85H0V119.59Z" fill="#332010"/>
<path d="M199.94 119.59C205.34 118.02 206.9 114.02 206.9 99.75V59.71C206.9 47.53 204.64 45.78 199.94 43.69V41.78L218.91 33.42L220.48 34.64V56.4C223.27 49.61 227.97 43.69 233.19 39.86C238.59 35.86 244.68 33.59 253.03 33.59C259.99 33.59 264.34 35.33 264.34 38.29C264.34 42.12 260.51 48.21 254.24 48.21C249.54 48.21 242.75 46.29 232.48 43.34C227.43 47 221.16 56.74 220.64 65.1H220.47V99.74C220.47 114.01 222.21 118.02 227.43 119.58V121.84H199.93V119.58L199.94 119.59Z" fill="#332010"/>
<path d="M260.66 80.94C260.66 52.57 282.07 33.59 306.44 33.59C328.37 33.59 341.08 47.86 341.6 64.4H273.54C273.19 67.01 273.02 69.62 273.02 72.41C273.02 96.26 287.82 112.62 310.45 112.62C323.85 112.62 333.43 106.53 341.44 97.48L343.01 99.05C334.13 111.23 320.55 123.59 301.93 123.59C283.31 123.59 260.67 109.66 260.67 80.94H260.66ZM327.67 62.14C325.93 50.48 316.53 36.72 300.69 36.72C285.89 36.55 276.84 47.51 274.06 62.14H327.67Z" fill="#332010"/>
<path d="M349.74 119.59C355.14 118.02 356.7 114.02 356.7 99.75V59.71C356.7 47.53 354.61 45.78 349.74 43.69V41.78L368.89 33.42L370.28 34.64V49.61C380.38 41.43 393.78 33.6 407.18 33.6C424.24 33.6 434.68 43.52 434.68 63.89V99.75C434.68 114.02 436.42 118.03 441.64 119.59V121.85H414.14V119.59C419.54 118.02 421.1 114.02 421.1 99.75V67.37C421.1 49.27 413.44 39.34 398.12 39.34C388.55 39.34 379.15 45.08 370.27 52.4V99.75C370.27 114.02 372.01 118.03 377.23 119.59V121.85H349.73V119.59H349.74Z" fill="#332010"/>
<path d="M252 1.30999C250.61 -0.590007 247 0.329993 242.52 3.59999C237.86 6.99999 235.1 10.7 233.41 14.96C232.93 16.18 232.08 17.21 230.95 17.88L229.94 18.48L228.93 17.88C227.8 17.21 226.95 16.18 226.47 14.96C224.78 10.7 222.02 6.99999 217.36 3.59999C212.89 0.329993 209.27 -0.590007 207.88 1.30999C206.08 3.76999 205.68 9.47999 209.71 12.43C212.41 14.4 216.9 16.18 223.52 18.61C224.38 18.93 225.16 19.45 225.79 20.12L229.79 24.45H230.08L234.08 20.12C234.7 19.44 235.49 18.92 236.35 18.61C242.97 16.17 247.47 14.4 250.16 12.43C254.19 9.48999 253.79 3.76999 251.99 1.30999H252Z" fill="#332010"/>
<path d="M506.99 34.81V37.07C513.08 38.29 513.43 43.86 508.56 55.17L487.15 104.96L465.74 55.17C460.17 42.11 458.78 38.63 464 37.07V34.81H437.71V37.07C441.37 38.64 445.72 42.12 451.11 55.17L479.66 122.19C479.59 122.34 479.51 122.5 479.44 122.65L477.76 125.98C477.6 126.28 477.45 126.58 477.29 126.88C471.14 137.98 464.62 140.74 446.15 140.94C446.15 140.94 443.57 141 441.9 141C435.46 141 431.11 147.27 431.11 150.58C431.11 154.87 440.07 155.37 440.53 155.41C460 157.08 469.68 150.08 478.44 129.58L480.34 125.71C481.63 123.19 482.92 120.47 484.2 117.51L511.18 55.19C516.92 42.13 521.45 38.65 526.32 37.09V34.83H507L506.99 34.81Z" fill="#332010"/>
</g>
<defs>
<clipPath id="clip0_3_36">
<rect width="526.31" height="155.64" fill="white"/>
</clipPath>
</defs>
</svg>
